<?xml version="1.0" encoding="utf-8"?>
<!-- Generator: Adobe Illustrator 24.3.0, SVG Export Plug-In . SVG Version: 6.00 Build 0)  -->
<svg version="1.1" xmlns="http://www.w3.org/2000/svg" xmlns:xlink="http://www.w3.org/1999/xlink" x="0px" y="0px"
	 viewBox="0 0 100 100" style="enable-background:new 0 0 100 100;" xml:space="preserve">
<g id="Layer_1">
	<path d="M45.4,10.1c-18.7,2-33.8,17.1-35.8,35.4c-2,19.1,9,36.2,25.6,42.7c1.2,0.4,2.4-0.4,2.4-2v-6.5c0,0-1.6,0.4-3.7,0.4
		c-5.7,0-8.1-4.9-8.5-7.7c-0.4-1.6-1.2-2.8-2.4-4.1c-1.2-0.4-1.6-0.4-1.6-0.8c0-0.8,1.2-0.8,1.6-0.8c2.4,0,4.5,2.8,5.3,4.1
		c2,3.3,4.5,4.1,5.7,4.1c1.6,0,2.8-0.4,3.7-0.8c0.4-2.8,1.6-5.7,4.1-7.3c-9.4-2-16.3-7.3-16.3-16.3c0-4.5,2-9,4.9-12.2
		c-0.4-0.8-0.8-2.8-0.8-5.7c0-1.6,0-4.1,1.2-6.5c0,0,5.7,0,11.4,5.3c2-0.8,4.9-1.2,7.7-1.2s5.7,0.4,8.1,1.2C63.3,26,69.4,26,69.4,26
		c0.8,2.4,0.8,4.9,0.8,6.5c0,3.3-0.4,4.9-0.8,5.7c2.8,3.3,4.9,7.3,4.9,12.2c0,9-6.9,14.2-16.3,16.3c2.4,2,4.1,5.7,4.1,9.4v10.6
		c0,1.2,1.2,2.4,2.8,2C80,82.5,90.6,67.9,90.6,50.8C90.6,26.4,69.8,7.3,45.4,10.1z"/>
</g>
<g id="Layer_2">
</g>
</svg>
